<?xml version="1.0" encoding="UTF-8"?> <svg xmlns="http://www.w3.org/2000/svg" id="_Слой_2" data-name="Слой 2" viewBox="0 0 856.1 856.1"><defs><style> .cls-1 { fill: #006ab5; } .cls-2 { fill: #57b14c; } .cls-3 { fill: #fff; stroke: #006ab5; stroke-miterlimit: 10; stroke-width: 16px; } </style></defs><g id="_Слой_1-2" data-name="Слой 1"><rect class="cls-3" x="8" y="8" width="840.1" height="840.1" rx="420.05" ry="420.05"></rect><g><g><path class="cls-2" d="M713.23,507.92v17.82h39.47v19.1h-57.3v-56.03h57.3v19.12h-39.47Z"></path><path class="cls-2" d="M749.77,436.35c2.68,3.44,4.46,8.14,4.46,13.62,0,17.33-12.23,28.02-30.18,28.02-16.68,0-30.19-13.5-30.19-33.5,0-10.43,3.32-21.14,7.13-27.25h51.7v19.11h-2.93ZM732.21,436.35h-18.48c-1.15,2.42-2.03,5.09-2.03,8.27,0,9.68,6.5,13,13.24,13,7.51,0,11.47-4.85,11.47-11.07,0-3.96-1.79-7.65-4.2-10.2Z"></path><path class="cls-2" d="M752.71,403.24v-19.1h-13.37v-6.62c0-20.13-10.44-26.12-20.63-26.12-11.33,0-23.31,7.4-23.31,27.52v24.32h57.3ZM724.06,384.14h-12.1v-4.84c0-5.1,2.29-7.52,5.98-7.52s6.12,2.17,6.12,7.4v4.96Z"></path><path class="cls-2" d="M695.4,341.87v-19.11h26.49l-26.49-15.54v-23.94l27.25,18.59,30.06-21.39v24.7l-26.74,17.59h26.74v19.11h-57.3Z"></path></g><g><path class="cls-1" d="M295.04,511.51c-7.18,0-13.02-5.8-13.02-12.95v-55.97c0-9.31-7.54-16.84-16.84-16.84h-84.8c-9.3,0-16.85,7.53-16.85,16.84v55.97c0,7.15-5.83,12.95-13,12.95s-13.02-5.8-13.02-12.95v-171.48c0-7.13,5.84-12.94,13.02-12.94s13,5.81,13,12.94c0,9.3,7.55,16.83,16.85,16.83s16.84-7.53,16.84-16.83c0-25.72-20.95-46.63-46.68-46.63s-46.7,20.91-46.7,46.63v171.48c0,25.72,20.95,46.63,46.7,46.63s46.68-20.92,46.68-46.63v-39.13h51.11v39.13c0,25.72,20.96,46.63,46.7,46.63,9.3,0,16.84-7.55,16.84-16.84s-7.55-16.84-16.84-16.84Z"></path><path class="cls-1" d="M448.04,625.58h-100.22c-12.48,0-24.2-4.84-33-13.68-8.81-8.81-13.66-20.53-13.66-32.98s4.86-24.17,13.66-32.99c.27-.28.54-.52.83-.77l42.32-37.02c2.17-2.1,3.51-5.33,3.68-8.92v-.02c.21-5.71,2.55-11.07,6.59-15.1,8.8-8.76,23.1-8.78,31.88,0,4.25,4.23,6.6,9.9,6.6,15.93,0,6.03-2.35,11.7-6.61,15.96-.26.27-.53.51-.81.75l-60.95,53.32c-2.26,2.4-3.49,5.52-3.49,8.85s1.35,6.72,3.8,9.18c2.43,2.44,5.68,3.78,9.16,3.78h100.22c9.31,0,16.84,7.54,16.84,16.86s-7.53,16.84-16.84,16.84Z"></path><path class="cls-1" d="M527.54,485.65c-9.82,0-19.36-1.93-28.38-5.72-8.72-3.7-16.52-8.95-23.2-15.62-6.72-6.69-11.98-14.48-15.66-23.15-3.81-8.98-5.76-18.51-5.76-28.33s1.95-19.36,5.77-28.36c3.63-8.56,13.54-12.54,22.09-8.91,8.56,3.64,12.55,13.53,8.92,22.09-2.05,4.81-3.09,9.91-3.09,15.18s1.04,10.36,3.09,15.16c1.97,4.67,4.81,8.86,8.42,12.47,3.62,3.61,7.83,6.44,12.52,8.43,9.65,4.06,20.85,4.08,30.56,0,4.65-1.98,8.86-4.81,12.49-8.42,3.62-3.62,6.45-7.81,8.42-12.45,2.04-4.82,3.08-9.92,3.08-15.18s-1.04-10.37-3.08-15.18c-1.97-4.66-4.81-8.85-8.42-12.44-3.63-3.63-7.84-6.47-12.49-8.43-4.87-2.05-9.98-3.08-15.28-3.08-9.33,0-16.86-7.54-16.86-16.84s7.53-16.84,16.86-16.84c9.85,0,19.4,1.93,28.38,5.74,8.64,3.64,16.44,8.89,23.17,15.59,6.69,6.67,11.95,14.45,15.64,23.13,3.82,9.01,5.76,18.54,5.76,28.35s-1.95,19.34-5.76,28.34c-3.67,8.66-8.93,16.45-15.64,23.14-6.7,6.68-14.5,11.93-23.17,15.61-9.04,3.81-18.59,5.74-28.38,5.74Z"></path><path class="cls-2" d="M621.29,319.25c-6.59-6.56-17.25-6.55-23.81.04-6.58,6.59-6.56,17.25.03,23.82,18.72,18.65,29.03,43.42,29.03,69.72s-10.31,51.05-29.03,69.72c-18.72,18.67-43.58,28.97-69.96,28.97-12.9,0-25.44-2.45-37.29-7.26-11.44-4.66-21.8-11.36-30.8-19.87-.05-.04-.08-.05-.12-.09-.14-.12-.28-.21-.42-.31-3.32-2.91-7.48-4.34-11.61-4.2-.02,0-.07,0-.11,0-.36.02-.7.12-1.06.15-.73.07-1.43.14-2.15.3-.44.11-.84.28-1.27.41-.63.21-1.24.39-1.85.67-.39.19-.76.43-1.15.63-.57.34-1.15.62-1.69,1.02-.37.27-.69.59-1.03.88-.46.4-.93.74-1.36,1.18-.04.04-.08.1-.12.14-.15.16-.27.36-.41.52-2.85,3.34-4.23,7.48-4.06,11.6.03.63.04,1.26.04,1.92,0,12.56-4.91,24.37-13.79,33.27-6.59,6.58-6.59,17.22-.04,23.81,3.3,3.29,7.62,4.95,11.95,4.95s8.6-1.63,11.89-4.92c8.53-8.53,14.83-18.64,18.81-29.65,5.64,3.34,11.53,6.28,17.66,8.78,15.89,6.48,32.71,9.75,49.97,9.75,35.37,0,68.66-13.79,93.75-38.79,25.1-25.04,38.93-58.28,38.93-93.58s-13.83-68.56-38.93-93.58Z"></path><path class="cls-2" d="M527.54,280.46c-35.4,0-68.69,13.78-93.76,38.79-25.12,25.01-38.93,58.24-38.93,93.58,0,2.14.07,4.28.17,6.42-3.66-.5-7.36-.77-11.07-.77-15.27,0-29.77,4.29-42.2,11.89v-103.29c0-25.72-20.95-46.63-46.7-46.63s-46.7,20.91-46.7,46.63v39.13h-67.95c-9.3,0-16.85,7.53-16.85,16.83s7.55,16.84,16.85,16.84h84.8c9.3,0,16.84-7.54,16.84-16.84v-55.96c0-7.13,5.84-12.94,13.02-12.94s13.01,5.81,13.01,12.94v147.35c0,7.58,5.02,13.99,11.89,16.1,1.65.51,3.34.76,4.99.76.39,0,.75-.06,1.12-.09.25,0,.49-.02.73-.05.42-.04.85-.11,1.27-.2.24-.04.47-.1.71-.16.81-.19,1.61-.43,2.38-.75.11-.04.23-.07.34-.12.43-.2.86-.41,1.28-.63.12-.05.24-.12.34-.2,2.71-1.5,5-3.75,6.56-6.63.03-.04.06-.09.08-.14.25-.44.5-.88.7-1.35,7.38-17.51,24.45-28.83,43.48-28.83,8.29,0,16.43,2.18,23.57,6.27,6.68,3.86,14.88,2.62,20.14-2.5,0,0,0-.02.01-.02.37-.37.72-.75,1.07-1.15.04-.04.07-.08.11-.12.31-.36.6-.75.89-1.15.05-.09.11-.19.17-.27.21-.32.44-.63.62-.97.02-.04.04-.09.07-.14.07-.12.12-.24.18-.35.6-1.14,1.06-2.29,1.39-3.47.07-.25.14-.49.2-.74.02-.07.02-.13.04-.2.55-2.59.52-5.35-.24-8.07-1.2-4.29-2.11-8.63-2.68-12.97-.63-4.45-.94-8.99-.94-13.49,0-26.31,10.32-51.07,29.03-69.72,18.72-18.68,43.57-28.97,69.98-28.97,9.28,0,16.83-7.54,16.83-16.84s-7.55-16.84-16.83-16.84Z"></path></g></g></g></svg> 