<?xml version="1.0" encoding="UTF-8" standalone="no"?> <svg xmlns:dc="http://purl.org/dc/elements/1.1/" xmlns:cc="http://creativecommons.org/ns#" xmlns:rdf="http://www.w3.org/1999/02/22-rdf-syntax-ns#" xmlns:svg="http://www.w3.org/2000/svg" xmlns="http://www.w3.org/2000/svg" viewBox="0 0 1440 1440" height="1440" width="1440" xml:space="preserve" id="svg2" version="1.1"><metadata id="metadata8"></metadata><defs id="defs6"><clipPath id="clipPath18"><path id="path16" d="M 0,1080 H 1080 V 0 H 0 Z"></path></clipPath></defs><g transform="matrix(1.3333333,0,0,-1.3333333,0,1440)" id="g10"><g id="g12"><g clip-path="url(#clipPath18)" id="g14"><g transform="translate(867.2617,441.1796)" id="g20"><path id="path22" style="fill:#142d78;fill-opacity:1;fill-rule:nonzero;stroke:none" d="m 0,0 c 7.163,0 12.811,2.95 16.939,8.85 4.13,5.983 6.196,14.201 6.196,24.65 0,10.45 -2.066,18.625 -6.196,24.524 C 12.811,64.009 7.163,67 0,67 c -4.719,0 -8.849,-1.391 -12.389,-4.172 -3.455,-2.696 -6.152,-6.573 -8.09,-11.63 -1.854,-5.056 -2.781,-10.956 -2.781,-17.698 0,-6.741 0.927,-12.641 2.781,-17.697 1.938,-5.058 4.635,-8.976 8.09,-11.756 C -8.849,1.35 -4.719,0 0,0 m 0,-13.272 c -9.438,0 -17.993,2.021 -25.662,6.068 -7.585,4.129 -13.567,9.733 -17.95,16.812 -4.383,7.163 -6.574,15.127 -6.574,23.892 0,8.934 2.149,16.939 6.448,24.02 4.298,7.079 10.28,12.64 17.95,16.685 7.669,4.047 16.266,6.068 25.788,6.068 9.523,0 18.077,-2.021 25.662,-6.068 7.669,-4.045 13.653,-9.606 17.951,-16.685 4.298,-7.081 6.448,-15.086 6.448,-24.02 0,-8.933 -2.15,-16.938 -6.448,-24.019 C 39.315,2.402 33.331,-3.159 25.662,-7.204 18.077,-11.251 9.523,-13.272 0,-13.272"></path></g><g transform="translate(770.877,443.8339)" id="g24"><path id="path26" style="fill:#142d78;fill-opacity:1;fill-rule:nonzero;stroke:none" d="m 0,0 c 4.719,0 8.428,1.138 11.124,3.413 2.697,2.36 4.046,5.521 4.046,9.482 0,4.129 -1.307,7.332 -3.919,9.607 -2.613,2.275 -6.237,3.413 -10.872,3.413 H -12.009 L -12.009,0 Z M -12.009,61.69 V 39.315 h 10.998 c 3.455,0 6.32,1.053 8.596,3.161 2.275,2.106 3.413,4.803 3.413,8.09 0,3.203 -1.138,5.857 -3.413,7.964 -2.276,2.107 -5.225,3.16 -8.849,3.16 z M 17.572,33.879 c 7.416,-0.927 13.273,-3.498 17.571,-7.711 4.298,-4.13 6.447,-9.271 6.447,-15.423 0,-4.719 -1.475,-8.933 -4.424,-12.641 -2.95,-3.624 -7.079,-6.447 -12.389,-8.47 C 19.552,-12.389 13.526,-13.399 6.7,-13.399 H -37.292 V 75.09 H 2.275 c 10.452,0 18.668,-1.896 24.651,-5.689 5.984,-3.792 8.976,-9.017 8.976,-15.674 0,-4.552 -1.686,-8.555 -5.057,-12.01 -3.371,-3.456 -7.795,-5.689 -13.273,-6.699 z"></path></g><g transform="translate(672.0176,441.1796)" id="g28"><path id="path30" style="fill:#142d78;fill-opacity:1;fill-rule:nonzero;stroke:none" d="m 0,0 c 7.163,0 12.811,2.95 16.939,8.85 4.13,5.983 6.196,14.201 6.196,24.65 0,10.45 -2.066,18.625 -6.196,24.524 C 12.811,64.009 7.163,67 0,67 c -4.72,0 -8.849,-1.391 -12.389,-4.172 -3.455,-2.696 -6.152,-6.573 -8.09,-11.63 -1.854,-5.056 -2.781,-10.956 -2.781,-17.698 0,-6.741 0.927,-12.641 2.781,-17.697 1.938,-5.058 4.635,-8.976 8.09,-11.756 C -8.849,1.35 -4.72,0 0,0 m 0,-13.272 c -9.438,0 -17.992,2.021 -25.661,6.068 -7.585,4.129 -13.569,9.733 -17.951,16.812 -4.382,7.163 -6.574,15.127 -6.574,23.892 0,8.934 2.15,16.939 6.448,24.02 4.298,7.079 10.28,12.64 17.949,16.685 7.671,4.047 16.267,6.068 25.789,6.068 9.523,0 18.077,-2.021 25.662,-6.068 7.669,-4.045 13.653,-9.606 17.951,-16.685 4.298,-7.081 6.448,-15.086 6.448,-24.02 0,-8.933 -2.15,-16.938 -6.448,-24.019 C 39.315,2.402 33.331,-3.159 25.662,-7.204 18.077,-11.251 9.523,-13.272 0,-13.272"></path></g><g transform="translate(544.0937,445.8573)" id="g32"><path id="path34" style="fill:#142d78;fill-opacity:1;fill-rule:nonzero;stroke:none" d="M 0,0 H 37.671 V 58.655 H 11.124 C 10.365,45.424 9.396,32.909 8.216,21.11 7.795,16.307 6.826,12.135 5.31,8.596 3.876,5.056 2.106,2.569 0,1.137 Z M -23.513,-38.178 V 0 h 1.137 c 4.467,0 7.838,1.643 10.113,4.93 2.276,3.371 3.793,8.932 4.551,16.686 0.927,8.681 2.191,23.429 3.793,44.244 0.168,3.203 0.337,5.606 0.505,7.206 H 62.448 V 0 H 75.469 V -38.178 H 60.046 l -6.699,22.755 H -1.391 l -6.7,-22.755 z"></path></g><g transform="translate(450.5781,430.4344)" id="g36"><path id="path38" style="fill:#142d78;fill-opacity:1;fill-rule:nonzero;stroke:none" d="M 0,0 H -23.007 V 88.489 H 1.138 V 31.477 H 2.276 L 40.2,88.489 H 63.207 V 0 H 39.062 v 57.013 h -1.138 z"></path></g><g transform="translate(376.1919,443.8339)" id="g40"><path id="path42" style="fill:#142d78;fill-opacity:1;fill-rule:nonzero;stroke:none" d="m 0,0 c 4.719,0 8.428,1.138 11.124,3.413 2.697,2.36 4.046,5.521 4.046,9.482 0,4.129 -1.307,7.332 -3.919,9.607 -2.613,2.275 -6.237,3.413 -10.872,3.413 H -12.009 L -12.009,0 Z M -12.009,61.69 V 39.315 h 10.998 c 3.455,0 6.32,1.053 8.596,3.161 2.275,2.106 3.413,4.803 3.413,8.09 0,3.203 -1.138,5.857 -3.413,7.964 -2.276,2.107 -5.225,3.16 -8.849,3.16 z M 17.572,33.879 c 7.416,-0.927 13.273,-3.498 17.571,-7.711 4.298,-4.13 6.447,-9.271 6.447,-15.423 0,-4.719 -1.475,-8.933 -4.424,-12.641 -2.95,-3.624 -7.079,-6.447 -12.389,-8.47 C 19.552,-12.389 13.526,-13.399 6.7,-13.399 H -37.292 V 75.09 H 2.275 c 10.451,0 18.668,-1.896 24.651,-5.689 5.984,-3.792 8.976,-9.017 8.976,-15.674 0,-4.552 -1.686,-8.555 -5.057,-12.01 -3.371,-3.456 -7.796,-5.689 -13.273,-6.699 z"></path></g><g transform="translate(281.4648,492.1239)" id="g44"><path id="path46" style="fill:#142d78;fill-opacity:1;fill-rule:nonzero;stroke:none" d="M 0,0 -11.883,-30.466 H 12.515 L 1.137,0 Z M 51.197,-61.689 H 24.271 l -6.321,16.812 h -35.522 l -6.573,-16.812 h -18.33 L -6.574,26.8 h 21.87 z"></path></g><g transform="translate(200.8091,427.9071)" id="g48"><path id="path50" style="fill:#142d78;fill-opacity:1;fill-rule:nonzero;stroke:none" d="M 0,0 C -8.09,0 -15.717,1.854 -22.881,5.562 -30.044,9.27 -35.354,14.116 -38.809,20.1 l 7.838,7.711 c 3.371,-4.382 7.247,-7.753 11.63,-10.113 4.382,-2.276 9.017,-3.413 13.905,-3.413 5.225,0 9.439,1.306 12.642,3.918 3.286,2.613 4.93,6.026 4.93,10.24 0,4.214 -1.601,7.627 -4.804,10.239 -3.202,2.613 -7.374,3.919 -12.515,3.919 h -9.355 v 13.4 h 10.366 c 3.961,0 7.122,1.054 9.481,3.161 2.444,2.191 3.666,5.014 3.666,8.469 0,3.456 -1.306,6.237 -3.918,8.344 -2.529,2.191 -5.858,3.286 -9.987,3.286 -3.877,0 -7.838,-0.969 -11.883,-2.907 -3.961,-1.939 -7.416,-4.551 -10.366,-7.838 l -7.838,7.711 c 3.371,5.057 8.344,9.186 14.917,12.389 6.658,3.287 13.569,4.93 20.732,4.93 6.574,0 12.515,-1.011 17.824,-3.034 5.31,-2.022 9.439,-4.804 12.389,-8.343 3.034,-3.54 4.551,-7.543 4.551,-12.009 0,-4.636 -1.896,-8.807 -5.689,-12.515 -3.792,-3.709 -8.554,-6.068 -14.284,-7.081 v -1.136 c 4.382,-0.759 8.343,-2.276 11.882,-4.551 3.54,-2.276 6.279,-5.099 8.217,-8.47 2.023,-3.287 3.034,-6.784 3.034,-10.492 0,-4.888 -1.685,-9.313 -5.056,-13.274 C 30.213,8.68 25.62,5.562 19.721,3.287 13.906,1.095 7.332,0 0,0"></path></g><g transform="translate(751.4854,340.3456)" id="g52"><path id="path54" style="fill:#142d78;fill-opacity:1;fill-rule:nonzero;stroke:none" d="M 0,0 -8.453,-21.252 H 8.848 L 0.632,0 Z M 30.73,-40.765 H 16.353 l -4.503,11.772 h -23.384 l -4.661,-11.772 h -9.796 L -3.397,14.536 H 8.137 Z"></path></g><g transform="translate(683.3496,299.5809)" id="g56"><path id="path58" style="fill:#142d78;fill-opacity:1;fill-rule:nonzero;stroke:none" d="M 0,0 H -13.43 V 55.301 H 37.21 V 0 H 23.78 V 47.085 H 0 Z"></path></g><g transform="translate(638.8896,298.0018)" id="g60"><path id="path62" style="fill:#142d78;fill-opacity:1;fill-rule:nonzero;stroke:none" d="m 0,0 c -5.583,0 -10.665,1.265 -15.247,3.792 -4.529,2.581 -8.11,6.083 -10.743,10.507 -2.581,4.477 -3.871,9.454 -3.871,14.932 0,5.477 1.29,10.428 3.871,14.852 2.633,4.477 6.214,7.98 10.743,10.507 4.582,2.581 9.664,3.871 15.247,3.871 4.951,0 9.48,-1.053 13.589,-3.16 4.16,-2.054 7.399,-4.898 9.717,-8.531 l -4.267,-4.109 c -2.106,2.58 -4.582,4.582 -7.426,6.004 -2.791,1.475 -5.714,2.212 -8.768,2.212 -3.53,0 -6.716,-0.947 -9.56,-2.844 -2.844,-1.844 -5.083,-4.424 -6.715,-7.742 -1.58,-3.266 -2.37,-6.952 -2.37,-11.06 0,-4.161 0.817,-7.874 2.449,-11.14 1.632,-3.265 3.897,-5.846 6.794,-7.741 2.898,-1.844 6.162,-2.766 9.796,-2.766 3.213,0 6.294,0.79 9.243,2.37 2.95,1.58 5.452,3.792 7.505,6.636 l 4.266,-4.108 C 18.354,4.161 10.271,0 0,0"></path></g><g transform="translate(559.6172,305.5839)" id="g64"><path id="path66" style="fill:#142d78;fill-opacity:1;fill-rule:nonzero;stroke:none" d="M 0,0 C 3.213,0 6.346,1.291 9.4,3.871 L -5.53,20.304 c -1.896,-1.264 -3.371,-2.765 -4.424,-4.503 -1.001,-1.686 -1.501,-3.503 -1.501,-5.451 0,-1.897 0.5,-3.635 1.501,-5.215 1.053,-1.58 2.449,-2.844 4.186,-3.792 C -4.029,0.448 -2.107,0 0,0 M 32.942,-6.004 H 18.407 l -4.819,5.293 c -2.475,-2.212 -5.214,-3.923 -8.216,-5.135 -2.949,-1.158 -6.03,-1.738 -9.243,-1.738 -3.792,0 -7.268,0.711 -10.428,2.133 -3.107,1.422 -5.583,3.371 -7.426,5.847 -1.791,2.475 -2.686,5.213 -2.686,8.215 0,3.635 1.238,6.9 3.713,9.797 2.528,2.896 5.951,5.029 10.27,6.4 v 0.631 c -3.845,3.951 -5.767,7.847 -5.767,11.692 0,2.58 0.79,4.898 2.37,6.952 1.633,2.107 3.845,3.767 6.636,4.978 2.791,1.21 5.899,1.816 9.322,1.816 4.003,0 7.584,-0.869 10.744,-2.606 3.16,-1.686 5.82,-4.162 7.978,-7.427 L 16.59,36.736 c -3.265,4.371 -7.031,6.557 -11.297,6.557 -2.317,0 -4.24,-0.658 -5.768,-1.975 -1.526,-1.264 -2.291,-2.897 -2.291,-4.898 0,-2.16 1.133,-4.451 3.398,-6.873 L 16.037,12.642 c 1.422,2.791 2.317,5.739 2.686,8.847 h 5.924 C 24.016,16.485 22.567,11.956 20.303,7.9 Z"></path></g><g transform="translate(488.6572,340.3456)" id="g68"><path id="path70" style="fill:#142d78;fill-opacity:1;fill-rule:nonzero;stroke:none" d="M 0,0 -8.453,-21.252 H 8.848 L 0.632,0 Z M 30.731,-40.765 H 16.353 l -4.503,11.772 h -23.384 l -4.661,-11.772 h -9.796 L -3.397,14.536 H 8.137 Z"></path></g><g transform="translate(438.1069,306.8495)" id="g72"><path id="path74" style="fill:#142d78;fill-opacity:1;fill-rule:nonzero;stroke:none" d="m 0,0 c 3.213,0 5.767,0.816 7.663,2.448 1.949,1.634 2.924,3.792 2.924,6.479 0,2.739 -0.922,4.897 -2.766,6.477 -1.79,1.633 -4.239,2.45 -7.347,2.45 H -9.559 L -9.559,0 Z M -9.559,40.765 V 25.122 h 8.769 c 2.476,0 4.503,0.764 6.083,2.291 1.633,1.527 2.449,3.424 2.449,5.689 0,2.263 -0.842,4.108 -2.528,5.53 -1.632,1.422 -3.739,2.133 -6.32,2.133 z M 10.034,22.278 c 4.476,-0.58 8.031,-2.16 10.665,-4.741 2.633,-2.579 3.95,-5.793 3.95,-9.638 C 24.649,4.95 23.727,2.317 21.884,0 20.093,-2.265 17.565,-4.056 14.3,-5.372 11.087,-6.637 7.374,-7.269 3.16,-7.269 H -22.989 V 48.032 H 0.632 c 6.268,0 11.245,-1.212 14.932,-3.634 3.686,-2.37 5.53,-5.635 5.53,-9.795 0,-2.74 -1.027,-5.214 -3.081,-7.426 -2.054,-2.16 -4.714,-3.582 -7.979,-4.267 z"></path></g><g transform="translate(407.2012,354.8817)" id="g76"><path id="path78" style="fill:#142d78;fill-opacity:1;fill-rule:nonzero;stroke:none" d="M 0,0 -16.827,-25.675 3.239,-55.301 h -14.694 l -16.116,23.7 h -7.426 v -23.7 h -13.43 V 0 h 13.43 v -23.384 h 8.769 L -10.823,0 Z"></path></g><g transform="translate(323.104,340.3456)" id="g80"><path id="path82" style="fill:#142d78;fill-opacity:1;fill-rule:nonzero;stroke:none" d="M 0,0 -8.453,-21.252 H 8.848 L 0.632,0 Z M 30.731,-40.765 H 16.353 l -4.503,11.772 h -23.384 l -4.661,-11.772 h -9.796 L -3.397,14.536 H 8.137 Z"></path></g><g transform="translate(515.4668,634.951)" id="g84"><path id="path86" style="fill:#142d78;fill-opacity:1;fill-rule:nonzero;stroke:none" d="m 0,0 c -17.365,8.352 -32.364,15.561 -50.568,15.561 -4.571,0 -8.872,-0.229 -12.957,-0.592 14.499,-34.687 49.108,-58.856 89.235,-58.533 24.48,-0.202 46.903,8.756 63.972,23.618 -5.099,-0.484 -10.347,-0.753 -15.797,-0.753 -30.822,0 -53.693,11.001 -73.871,20.712 z m 164.161,57.887 c -3.557,-16.946 -19.502,-62.46 -90.276,-62.46 -52.354,0 -78.984,36.274 -124.44,36.274 -29.442,0 -50.338,-7.828 -61.414,-13.356 -2.34,-1.156 -4.626,1.641 -3.03,3.685 8.169,10.491 24.818,27.357 51.596,35.01 0.095,0.027 0.189,0.054 0.284,0.081 1.109,0.309 2.245,0.618 3.395,0.901 0.27,0.067 0.554,0.134 0.825,0.188 0.987,0.229 1.988,0.457 3.016,0.659 0.338,0.067 0.69,0.135 1.028,0.202 0.987,0.188 1.988,0.363 2.989,0.538 0.351,0.054 0.716,0.121 1.068,0.175 1.055,0.161 2.137,0.309 3.219,0.444 0.311,0.04 0.608,0.08 0.92,0.121 1.338,0.148 2.691,0.282 4.057,0.39 0.054,0 0.122,0 0.176,0.013 2.732,0.202 5.545,0.31 8.439,0.31 52.056,0 64.228,-31.984 114.729,-31.984 1.961,0 3.881,0.067 5.788,0.175 2.218,7.263 3.341,14.875 3.232,22.488 0.406,30.813 -19.122,61.815 -50.621,68.325 -4.599,0.954 -9.076,1.398 -13.444,1.425 -29.781,0.148 -53.246,-20.524 -61.158,-48.338 -12.713,-0.148 -24.02,-2.112 -34.028,-5.232 7.587,45.339 47.525,79.515 95.199,79.125 53.192,0.43 96.795,-42.179 96.511,-95.305 0.027,-5.098 -0.378,-10.087 -1.136,-14.97 18.529,7.129 32.162,17.498 39.046,23.47 1.785,1.547 4.503,-0.04 4.016,-2.34 z"></path></g></g></g></g></svg> 